<svg xmlns="http://www.w3.org/2000/svg" viewBox="0 0 24 24" role="img" aria-label="WhatsApp Icon">
  <path fill="#25D366" d="M20.52 3.48A11.86 11.86 0 0 0 12.07 0C5.52 0 .2 5.32.2 11.88c0 2.1.55 4.15 1.6 5.95L0 24l6.36-1.67a11.83 11.83 0 0 0 5.7 1.45h.01c6.55 0 11.87-5.32 11.87-11.88 0-3.17-1.24-6.15-3.42-8.42z"/>
  <path fill="#fff" d="M12.08 21.76h-.01a9.86 9.86 0 0 1-5.02-1.38l-.36-.21-3.77.99 1-3.67-.23-.38a9.88 9.88 0 0 1-1.52-5.22c0-5.44 4.43-9.87 9.89-9.87 2.64 0 5.12 1.03 6.99 2.9a9.82 9.82 0 0 1 2.89 6.99c0 5.44-4.43 9.86-9.86 9.86z"/>
  <path fill="#25D366" d="M17.7 14.3c-.3-.15-1.78-.88-2.05-.97-.27-.1-.46-.15-.66.15-.2.3-.76.97-.93 1.16-.17.2-.34.22-.63.08-.3-.15-1.24-.46-2.36-1.47-.87-.78-1.46-1.74-1.64-2.03-.17-.3-.02-.45.13-.6.14-.14.3-.34.44-.5.15-.17.2-.3.3-.5.1-.2.05-.38-.02-.53-.07-.15-.66-1.6-.9-2.2-.24-.57-.48-.5-.66-.5h-.56c-.2 0-.53.08-.8.38-.27.3-1.03 1-1.03 2.44s1.05 2.84 1.2 3.03c.14.2 2.04 3.1 4.94 4.35.69.3 1.23.48 1.65.62.69.22 1.31.19 1.8.12.55-.08 1.78-.73 2.03-1.43.25-.7.25-1.3.17-1.43-.08-.12-.28-.2-.57-.35z"/>
</svg>
